<svg xmlns="http://www.w3.org/2000/svg" viewBox="0 0 1440 320">
  <path fill="#5000ca" fill-opacity="1" d="M0,256L21.8,245.3C43.6,235,87,213,131,181.3C174.5,149,218,107,262,80C305.5,53,349,43,393,48C436.4,53,480,75,524,74.7C567.3,75,611,53,655,69.3C698.2,85,742,139,785,160C829.1,181,873,171,916,149.3C960,128,1004,96,1047,90.7C1090.9,85,1135,107,1178,144C1221.8,181,1265,235,1309,229.3C1352.7,224,1396,160,1418,128L1440,96L1440,0L1418.2,0C1396.4,0,1353,0,1309,0C1265.5,0,1222,0,1178,0C1134.5,0,1091,0,1047,0C1003.6,0,960,0,916,0C872.7,0,829,0,785,0C741.8,0,698,0,655,0C610.9,0,567,0,524,0C480,0,436,0,393,0C349.1,0,305,0,262,0C218.2,0,175,0,131,0C87.3,0,44,0,22,0L0,0Z" data-darkreader-inline-fill="" style="--darkreader-inline-fill: #4000a2;"></path>
</svg>