<svg xmlns="http://www.w3.org/2000/svg" viewBox="0 0 1440 320">
  <path fill="#5000ca" fill-opacity="1" d="M0,192L18.5,213.3C36.9,235,74,277,111,266.7C147.7,256,185,192,222,186.7C258.5,181,295,235,332,256C369.2,277,406,267,443,234.7C480,203,517,149,554,138.7C590.8,128,628,160,665,176C701.5,192,738,192,775,176C812.3,160,849,128,886,122.7C923.1,117,960,139,997,170.7C1033.8,203,1071,245,1108,261.3C1144.6,277,1182,267,1218,224C1255.4,181,1292,107,1329,101.3C1366.2,96,1403,160,1422,192L1440,224L1440,320L1421.5,320C1403.1,320,1366,320,1329,320C1292.3,320,1255,320,1218,320C1181.5,320,1145,320,1108,320C1070.8,320,1034,320,997,320C960,320,923,320,886,320C849.2,320,812,320,775,320C738.5,320,702,320,665,320C627.7,320,591,320,554,320C516.9,320,480,320,443,320C406.2,320,369,320,332,320C295.4,320,258,320,222,320C184.6,320,148,320,111,320C73.8,320,37,320,18,320L0,320Z" data-darkreader-inline-fill="" style="--darkreader-inline-fill: #4000a2;"></path>
</svg>