<svg viewBox="0 0 1920 1080" xmlns="http://www.w3.org/2000/svg">
    <path d="M1512,540.9999999999999C1516.9002754570104,607.1770228283287,1353.7229250547307,715.2652885413878,1323.611616050703,787.6755432573405C1293.5003070466755,860.0857979732931,1373.9973018434891,923.7679265226961,1331.3321459758351,975.4615282957157C1288.6669901081812,1027.1551300687352,1131.7988401084558,1084.774549628834,1067.6206808447794,1097.8371538954575C1003.4425215811028,1110.899758162081,1009.1986686278447,1073.399758162081,946.263190393776,1053.8371538954575C883.3277121597073,1034.274549628834,761.2197857807917,1024.4695601055055,690.0078114403673,980.4615282957157C618.7958370999429,936.4534964859257,538.9681998136041,854.3658844193374,518.99134435123,789.7889630367181C499.0144888888561,725.2120416540988,568.9800119994567,663.262987678906,570.1466786661233,593C571.3133453327899,522.737012321094,510.57114845822304,437.7879583459013,525.9913443512299,368.211036963282C541.4115402442369,298.63411558066275,600.8036598038807,205.8964934617546,662.6678540241649,175.5384717042844C724.532048244449,145.1804499468142,820.6505702891181,202.9588440184178,897.1765096729348,186.06290641846084C973.7024490567514,169.16696881850388,1051.464217609915,78.30029302936971,1121.823490327065,74.16284610454261C1192.1827630442149,70.0253991797155,1290.6010671455722,108.49646483902742,1319.332145975835,161.2382248694982C1348.0632248060977,213.97998489996897,1262.0986543046138,327.31977709895034,1294.2099633086414,390.6134062873673C1326.321272312669,453.90703547578426,1507.0997245429896,474.822977171671,1512,540.9999999999999C1516.9002754570104,607.1770228283287,1353.7229250547307,715.2652885413878,1323.611616050703,787.6755432573405" fill="#df6688"/>
</svg>